<?xml version="1.0" encoding="iso-8859-1"?>
<!-- Uploaded to: SVG Repo, www.svgrepo.com, Generator: SVG Repo Mixer Tools -->
<svg fill="#000000" height="800px" width="800px" version="1.1" id="Layer_1" xmlns="http://www.w3.org/2000/svg" xmlns:xlink="http://www.w3.org/1999/xlink" 
	 viewBox="0 0 512 512" xml:space="preserve">
<g>
	<g>
		<path d="M114.649,291.926H13.228c2.13,34.073,11.4,66.773,27.108,96.352h87.784C120.489,357.156,115.793,324.02,114.649,291.926z"
			/>
	</g>
</g>
<g>
	<g>
		<path d="M40.336,165.19c-15.708,29.579-24.978,62.279-27.108,96.352h101.421c1.143-32.094,5.84-65.23,13.472-96.352H40.336z"/>
	</g>
</g>
<g>
	<g>
		<path d="M177.92,111.802c-3.259,7.325-6.312,15.019-9.144,23.004h67.048v-93.3C215.076,49.727,194.591,74.335,177.92,111.802z"/>
	</g>
</g>
<g>
	<g>
		<path d="M150.16,454.019c-4.935-11.09-9.431-22.953-13.444-35.356H59.562c6.938,9.318,14.601,18.197,22.965,26.561
			c27.606,27.606,60.798,47.588,97.02,58.924C168.84,490.563,158.958,473.789,150.16,454.019z"/>
	</g>
</g>
<g>
	<g>
		<path d="M361.618,65.634c-12.329-6.467-25.207-11.805-38.451-16.002c10.721,13.506,20.652,30.138,29.541,49.715
			c5.057,11.137,9.665,23.034,13.778,35.46h20.873C374.881,115.343,364.203,91.713,361.618,65.634z"/>
	</g>
</g>
<g>
	<g>
		<path d="M389.136,291.926c-1.178,32.029-6.005,65.168-13.847,96.352h86.409c15.708-29.579,24.978-62.279,27.108-96.352H389.136z"
			/>
	</g>
</g>
<g>
	<g>
		<path d="M266.209,291.926v96.352h77.716c8.368-30.842,13.551-64.154,14.812-96.352H266.209z"/>
	</g>
</g>
<g>
	<g>
		<path d="M159.436,165.19c-8.132,30.775-13.168,64.081-14.39,96.352h90.779V165.19H159.436z"/>
	</g>
</g>
<g>
	<g>
		<path d="M82.527,108.245c-8.365,8.365-16.027,17.243-22.966,26.561h77.155c4.013-12.403,8.509-24.266,13.443-35.356
			c8.797-19.771,18.679-36.545,29.388-50.129C143.324,60.657,110.132,80.64,82.527,108.245z"/>
	</g>
</g>
<g>
	<g>
		<path d="M366.485,418.662c-4.113,12.425-8.72,24.323-13.778,35.461c-8.916,19.637-18.882,36.313-29.641,49.841
			c35.997-11.368,68.982-31.283,96.44-58.741c8.365-8.365,16.027-17.243,22.965-26.561H366.485z"/>
	</g>
</g>
<g>
	<g>
		<path d="M467.714,177.541c-6.119,5.992-10.72,9.891-12.436,11.307c-0.007,0.006-0.016,0.013-0.023,0.019
			c-0.077,0.064-0.141,0.115-0.206,0.169c-0.26,0.213-0.432,0.351-0.483,0.392l-9.48,7.57l-9.48-7.57
			c-1.129-0.902-11.943-9.663-25.001-24.238h-35.316c7.841,31.184,12.669,64.323,13.847,96.352h99.656
			C486.935,232.445,479.785,203.922,467.714,177.541z"/>
	</g>
</g>
<g>
	<g>
		<path d="M145.046,291.926c1.222,32.271,6.257,65.576,14.39,96.352h76.389v-96.352H145.046z"/>
	</g>
</g>
<g>
	<g>
		<path d="M325.04,111.905c-17.062-37.581-37.876-62.245-58.831-70.438v93.338h68.136
			C331.461,126.866,328.355,119.207,325.04,111.905z"/>
	</g>
</g>
<g>
	<g>
		<path d="M168.777,418.662c2.832,7.985,5.884,15.679,9.144,23.004c16.671,37.467,37.156,62.075,57.904,70.296v-93.3H168.777z"/>
	</g>
</g>
<g>
	<g>
		<path d="M343.925,165.19h-77.716v96.352h92.528C357.477,229.344,352.294,196.033,343.925,165.19z"/>
	</g>
</g>
<g>
	<g>
		<path d="M266.21,418.662V512c20.954-8.192,41.768-32.857,58.831-70.438c3.315-7.301,6.421-14.96,9.305-22.9H266.21z"/>
	</g>
</g>
<g>
	<g>
		<path d="M445.086,0C415.483,0,391.4,24.084,391.4,53.686c0,46.197,36.027,86.498,53.666,103.459
			c17.624-17.006,53.706-57.446,53.706-103.459C498.772,24.084,474.689,0,445.086,0z M445.086,79.135
			c-14.033,0-25.449-11.416-25.449-25.449c0-14.032,11.416-25.449,25.449-25.449s25.449,11.416,25.449,25.449
			S459.118,79.135,445.086,79.135z"/>
	</g>
</g>
</svg>